# xmcd CD database file
#
# Track frame offsets:
#	150
#	21975
#	44469
#	74039
#	99116
#	127052
#	151386
#	174846
#
# Disc length: 2710 seconds
#
# Revision: 0
# Processed by: cddbd v1.5.1PL0 Copyright (c) Steve Scherf et al.
# Submitted via: CDex 1.51
#
DISCID=670a9408
DTITLE=Grupo Niche - Grupo Niche-Historia Musical Vol.1
DYEAR=1900
DGENRE=Salsa
TTITLE0=Primero Y Que
TTITLE1=Digo Yo
TTITLE2=Consejo De Madre
TTITLE3=Cali Pachanguero
TTITLE4=Corazon Sin Corazon
TTITLE5=Mas Duro Me Da
TTITLE6=Lamento Guajiro
TTITLE7=Buenaventura Y Caney
EXTD=
EXTT0=
EXTT1=
EXTT2=
EXTT3=
EXTT4=
EXTT5=
EXTT6=
EXTT7=
PLAYORDER=
